<?xml version="1.0" standalone="no"?>
<!DOCTYPE svg PUBLIC "-//W3C//DTD SVG 20010904//EN"
 "http://www.w3.org/TR/2001/REC-SVG-20010904/DTD/svg10.dtd">
<svg version="1.0" xmlns="http://www.w3.org/2000/svg"
 width="223.000000pt" height="226.000000pt" viewBox="0 0 223.000000 226.000000"
 preserveAspectRatio="xMidYMid meet">

<g transform="translate(0.000000,226.000000) scale(0.100000,-0.100000)"
fill="#000000" stroke="none">
<path d="M1025 2240 c-141 -7 -202 -21 -335 -77 -180 -76 -343 -205 -463 -364
-285 -379 -290 -932 -11 -1319 129 -180 310 -320 509 -396 331 -125 703 -82
1004 117 169 112 329 307 398 484 114 292 122 537 28 818 -93 276 -345 546
-615 659 -185 78 -273 91 -515 78z m275 -250 c110 -18 185 -47 228 -90 38 -38
63 -95 61 -141 -2 -58 -43 -127 -96 -160 -38 -24 -156 -37 -176 -20 -8 6 -35
14 -61 17 -45 7 -58 17 -33 27 7 3 5 6 -5 6 -10 1 -18 -3 -18 -9 0 -5 -17 -10
-37 -10 -161 -2 -334 -113 -403 -259 -108 -228 -14 -499 211 -610 92 -45 218
-54 330 -22 95 26 121 26 176 -1 67 -33 113 -107 113 -180 0 -63 -52 -143
-114 -175 -77 -40 -262 -70 -366 -58 -36 3 -72 7 -80 7 -8 0 -40 7 -70 15 -46
13 -52 17 -35 24 14 6 10 7 -15 3 -67 -10 -262 105 -356 209 -79 88 -95 108
-124 162 -79 146 -112 272 -111 425 1 228 74 414 226 579 191 206 476 305 755
261z m547 -466 c61 -46 84 -104 72 -182 -12 -86 -79 -142 -169 -142 -71 0
-116 27 -148 90 -45 86 -14 187 72 241 41 26 134 22 173 -7z m-36 -445 c128
-43 155 -200 63 -370 -35 -63 -106 -144 -145 -164 -32 -17 -39 -18 -58 -6 -10
7 -4 22 28 72 51 78 54 115 11 124 -42 9 -89 52 -111 100 -66 145 62 294 212
244z"/>
<path d="M1265 1613 c11 -3 40 -11 64 -19 24 -8 46 -12 49 -9 3 2 -9 8 -27 11
-17 4 -34 11 -37 15 -3 5 -20 8 -37 8 -21 -1 -25 -3 -12 -6z"/>
<path d="M687 469 c7 -7 15 -10 18 -7 3 3 -2 9 -12 12 -14 6 -15 5 -6 -5z"/>
<path d="M1436 371 c-4 -5 3 -7 14 -4 23 6 26 13 6 13 -8 0 -17 -4 -20 -9z"/>
<path d="M1286 331 c-4 -5 3 -7 14 -4 23 6 26 13 6 13 -8 0 -17 -4 -20 -9z"/>
<path d="M1128 323 c7 -3 16 -2 19 1 4 3 -2 6 -13 5 -11 0 -14 -3 -6 -6z"/>
</g>
</svg>
